<?xml version="1.0" encoding="UTF-8"?>
<svg width="484px" height="86px" viewBox="0 0 484 86" version="1.1" xmlns="http://www.w3.org/2000/svg" xmlns:xlink="http://www.w3.org/1999/xlink">
    <defs>
        <path d="M39.927,49.501 C39.927,54.887 44.293,59.252 49.679,59.252 C52.567,59.252 55.162,57.997 56.947,56.002 L84.844,56.002 C85.232,53.894 85.434,51.721 85.434,49.501 C85.434,47.281 85.232,45.108 84.844,43 C81.787,26.357 67.206,13.746 49.679,13.746 L49.679,0.744 C22.751,0.744 0.922,22.573 0.922,49.501 L13.924,49.501 C13.924,69.248 29.932,85.256 49.679,85.256 C62.23,85.256 73.272,78.788 79.652,69.004 L61.405,69.004 C57.981,71.067 53.968,72.254 49.679,72.254 C37.113,72.254 26.926,62.067 26.926,49.501 L13.924,49.501 C13.924,29.754 29.932,13.746 49.679,13.746 L49.679,26.748 C59.986,26.748 68.693,33.601 71.49,43 L56.947,43 C55.162,41.005 52.567,39.75 49.679,39.75 C44.293,39.75 39.927,44.115 39.927,49.501 Z" id="path-1"></path>
    </defs>
    <g id="LOGO-" stroke="none" stroke-width="1" fill="none" fill-rule="evenodd">
        <g id="enhance-eps-cmyk-8">
            <path d="M163.706,52.07 C163.706,53.148 163.337,54.042 162.599,54.752 C161.861,55.462 160.924,55.817 159.789,55.817 L127.429,55.817 C128.054,59.79 129.856,62.998 132.837,65.439 C135.817,67.88 139.465,69.101 143.779,69.101 C145.483,69.101 147.257,68.789 149.102,68.164 C150.947,67.54 152.465,66.773 153.657,65.865 C154.452,65.24 155.389,64.928 156.468,64.928 C157.546,64.928 158.398,65.212 159.022,65.78 C160.044,66.631 160.555,67.596 160.555,68.675 C160.555,69.697 160.101,70.548 159.193,71.23 C157.263,72.763 154.864,74.012 151.997,74.977 C149.13,75.942 146.391,76.424 143.779,76.424 C139.124,76.424 134.951,75.417 131.261,73.401 C127.571,71.386 124.69,68.59 122.618,65.013 C120.546,61.437 119.51,57.378 119.51,52.836 C119.51,48.294 120.489,44.221 122.448,40.616 C124.406,37.011 127.131,34.201 130.623,32.186 C134.114,30.17 138.074,29.162 142.502,29.162 C146.873,29.162 150.649,30.128 153.828,32.058 C157.007,33.988 159.448,36.685 161.151,40.148 C162.854,43.611 163.706,47.585 163.706,52.07 Z M142.502,36.486 C138.358,36.486 134.994,37.621 132.411,39.892 C129.828,42.163 128.196,45.2 127.514,49.004 L155.872,49.004 C155.361,45.2 153.941,42.163 151.614,39.892 C149.286,37.621 146.249,36.486 142.502,36.486 L142.502,36.486 Z" id="Fill-1" fill="#FFFFFE"></path>
            <path d="M195.191,29.077 C199.108,29.077 202.628,29.929 205.751,31.632 C208.873,33.335 211.314,35.819 213.074,39.083 C214.834,42.347 215.714,46.279 215.714,50.877 L215.714,71.826 C215.714,73.075 215.302,74.111 214.479,74.934 C213.656,75.757 212.62,76.169 211.371,76.169 C210.122,76.169 209.086,75.757 208.263,74.934 C207.439,74.111 207.028,73.075 207.028,71.826 L207.028,50.877 C207.028,46.279 205.793,42.802 203.324,40.446 C200.854,38.09 197.575,36.912 193.488,36.912 C191.104,36.912 188.932,37.394 186.974,38.359 C185.015,39.325 183.482,40.63 182.375,42.277 C181.268,43.923 180.714,45.768 180.714,47.812 L180.714,71.826 C180.714,73.075 180.317,74.111 179.522,74.934 C178.728,75.757 177.677,76.169 176.371,76.169 C175.122,76.169 174.086,75.757 173.263,74.934 C172.44,74.111 172.029,73.075 172.029,71.826 L172.029,33.846 C172.029,32.54 172.44,31.49 173.263,30.695 C174.086,29.901 175.122,29.503 176.371,29.503 C177.677,29.503 178.728,29.901 179.522,30.695 C180.317,31.49 180.714,32.54 180.714,33.846 L180.714,34.783 C182.531,32.966 184.689,31.561 187.186,30.568 C189.684,29.574 192.353,29.077 195.191,29.077" id="Fill-2" fill="#FFFFFE"></path>
            <path d="M250.52,29.077 C254.438,29.077 257.957,29.929 261.08,31.632 C264.202,33.335 266.643,35.819 268.403,39.083 C270.163,42.347 271.043,46.279 271.043,50.877 L271.043,71.826 C271.043,73.075 270.631,74.111 269.808,74.934 C268.985,75.757 267.949,76.169 266.7,76.169 C265.451,76.169 264.415,75.757 263.592,74.934 C262.769,74.111 262.357,73.075 262.357,71.826 L262.357,50.877 C262.357,46.279 261.122,42.802 258.653,40.446 C256.183,38.09 252.905,36.912 248.817,36.912 C246.433,36.912 244.261,37.394 242.303,38.359 C240.344,39.325 238.811,40.63 237.704,42.277 C236.597,43.923 236.044,45.768 236.044,47.812 L236.044,71.826 C236.044,73.075 235.646,74.111 234.852,74.934 C234.057,75.757 233.007,76.169 231.701,76.169 C230.452,76.169 229.416,75.757 228.592,74.934 C227.769,74.111 227.358,73.075 227.358,71.826 L227.358,13.92 C227.358,12.614 227.769,11.563 228.592,10.769 C229.416,9.974 230.452,9.576 231.701,9.576 C233.007,9.576 234.057,9.974 234.852,10.769 C235.646,11.563 236.044,12.614 236.044,13.92 L236.044,34.783 C237.86,32.966 240.018,31.561 242.516,30.568 C245.014,29.574 247.682,29.077 250.52,29.077" id="Fill-3" fill="#FFFFFE"></path>
            <path d="M303.891,29.162 C308.262,29.162 312.222,30.198 315.77,32.271 C319.318,34.343 322.128,37.181 324.2,40.786 C326.273,44.391 327.309,48.408 327.309,52.836 L327.309,71.826 C327.309,73.075 326.897,74.111 326.074,74.934 C325.251,75.757 324.215,76.169 322.966,76.169 C321.717,76.169 320.681,75.757 319.858,74.934 C319.034,74.111 318.623,73.075 318.623,71.826 L318.623,68.675 C316.636,71.116 314.223,73.018 311.384,74.381 C308.546,75.743 305.48,76.424 302.187,76.424 C298.1,76.424 294.396,75.403 291.075,73.359 C287.753,71.315 285.142,68.491 283.24,64.886 C281.338,61.281 280.388,57.264 280.388,52.836 C280.388,48.408 281.41,44.391 283.453,40.786 C285.497,37.181 288.321,34.343 291.926,32.271 C295.531,30.198 299.519,29.162 303.891,29.162 Z M303.891,68.76 C306.729,68.76 309.298,68.065 311.597,66.674 C313.897,65.283 315.699,63.381 317.005,60.969 C318.311,58.556 318.963,55.845 318.963,52.836 C318.963,49.827 318.311,47.102 317.005,44.661 C315.699,42.22 313.897,40.304 311.597,38.913 C309.298,37.522 306.729,36.827 303.891,36.827 C301.052,36.827 298.483,37.522 296.184,38.913 C293.885,40.304 292.068,42.22 290.734,44.661 C289.4,47.102 288.733,49.827 288.733,52.836 C288.733,55.845 289.4,58.556 290.734,60.969 C292.068,63.381 293.885,65.283 296.184,66.674 C298.483,68.065 301.052,68.76 303.891,68.76 L303.891,68.76 Z" id="Fill-4" fill="#FFFFFE"></path>
            <path d="M360.668,29.077 C364.585,29.077 368.105,29.929 371.227,31.632 C374.349,33.335 376.791,35.819 378.55,39.083 C380.31,42.347 381.19,46.279 381.19,50.877 L381.19,71.826 C381.19,73.075 380.779,74.111 379.955,74.934 C379.132,75.757 378.096,76.169 376.847,76.169 C375.598,76.169 374.562,75.757 373.739,74.934 C372.916,74.111 372.504,73.075 372.504,71.826 L372.504,50.877 C372.504,46.279 371.27,42.802 368.8,40.446 C366.33,38.09 363.052,36.912 358.964,36.912 C356.58,36.912 354.408,37.394 352.45,38.359 C350.491,39.325 348.959,40.63 347.851,42.277 C346.744,43.923 346.191,45.768 346.191,47.812 L346.191,71.826 C346.191,73.075 345.793,74.111 344.999,74.934 C344.204,75.757 343.154,76.169 341.848,76.169 C340.599,76.169 339.563,75.757 338.74,74.934 C337.916,74.111 337.505,73.075 337.505,71.826 L337.505,33.846 C337.505,32.54 337.916,31.49 338.74,30.695 C339.563,29.901 340.599,29.503 341.848,29.503 C343.154,29.503 344.204,29.901 344.999,30.695 C345.793,31.49 346.191,32.54 346.191,33.846 L346.191,34.783 C348.008,32.966 350.165,31.561 352.663,30.568 C355.161,29.574 357.829,29.077 360.668,29.077" id="Fill-5" fill="#FFFFFE"></path>
            <path d="M413.953,76.424 C409.468,76.424 405.437,75.403 401.861,73.359 C398.284,71.315 395.488,68.491 393.473,64.886 C391.457,61.281 390.45,57.264 390.45,52.836 C390.45,48.294 391.429,44.221 393.388,40.616 C395.346,37.011 398.086,34.201 401.605,32.186 C405.125,30.17 409.099,29.162 413.527,29.162 C420.226,29.162 425.79,31.717 430.218,36.827 C430.785,37.451 431.069,38.189 431.069,39.041 C431.069,40.29 430.445,41.34 429.196,42.192 C428.628,42.589 427.975,42.788 427.237,42.788 C425.932,42.788 424.824,42.277 423.916,41.255 C422.497,39.722 420.95,38.601 419.275,37.891 C417.6,37.181 415.684,36.827 413.527,36.827 C409.156,36.827 405.608,38.289 402.883,41.212 C400.158,44.136 398.795,48.011 398.795,52.836 C398.795,55.902 399.434,58.641 400.711,61.054 C401.989,63.466 403.777,65.354 406.076,66.717 C408.375,68.079 411.001,68.76 413.953,68.76 C417.813,68.76 420.936,67.767 423.32,65.78 C424.399,64.985 425.449,64.588 426.471,64.588 C427.266,64.588 428.004,64.843 428.685,65.354 C429.764,66.262 430.303,67.284 430.303,68.42 C430.303,69.271 429.962,70.038 429.281,70.719 C425.193,74.522 420.084,76.424 413.953,76.424" id="Fill-6" fill="#FFFFFE"></path>
            <path d="M483.077,52.07 C483.077,53.148 482.708,54.042 481.97,54.752 C481.232,55.462 480.295,55.817 479.16,55.817 L446.801,55.817 C447.425,59.79 449.228,62.998 452.208,65.439 C455.189,67.88 458.836,69.101 463.151,69.101 C464.854,69.101 466.628,68.789 468.473,68.164 C470.318,67.54 471.836,66.773 473.029,65.865 C473.824,65.24 474.76,64.928 475.839,64.928 C476.918,64.928 477.769,65.212 478.394,65.78 C479.415,66.631 479.927,67.596 479.927,68.675 C479.927,69.697 479.472,70.548 478.564,71.23 C476.634,72.763 474.235,74.012 471.368,74.977 C468.501,75.942 465.762,76.424 463.151,76.424 C458.495,76.424 454.323,75.417 450.633,73.401 C446.943,71.386 444.061,68.59 441.989,65.013 C439.917,61.437 438.881,57.378 438.881,52.836 C438.881,48.294 439.86,44.221 441.819,40.616 C443.777,37.011 446.503,34.201 449.994,32.186 C453.485,30.17 457.445,29.162 461.873,29.162 C466.245,29.162 470.02,30.128 473.199,32.058 C476.378,33.988 478.819,36.685 480.523,40.148 C482.226,43.611 483.077,47.585 483.077,52.07 Z M461.873,36.486 C457.729,36.486 454.365,37.621 451.782,39.892 C449.199,42.163 447.567,45.2 446.886,49.004 L475.243,49.004 C474.732,45.2 473.313,42.163 470.985,39.892 C468.657,37.621 465.62,36.486 461.873,36.486 L461.873,36.486 Z" id="Fill-7" fill="#FFFFFE"></path>
            <g id="Group-10">
                <mask id="mask-2" fill="white">
                    <use xlink:href="#path-1"></use>
                </mask>
                <g id="Clip-9"></g>
                <path d="M39.927,49.501 C39.927,54.887 44.293,59.252 49.679,59.252 C52.567,59.252 55.162,57.997 56.947,56.002 L84.844,56.002 C85.232,53.894 85.434,51.721 85.434,49.501 C85.434,47.281 85.232,45.108 84.844,43 C81.787,26.357 67.206,13.746 49.679,13.746 L49.679,0.744 C22.751,0.744 0.922,22.573 0.922,49.501 L13.924,49.501 C13.924,69.248 29.932,85.256 49.679,85.256 C62.23,85.256 73.272,78.788 79.652,69.004 L61.405,69.004 C57.981,71.067 53.968,72.254 49.679,72.254 C37.113,72.254 26.926,62.067 26.926,49.501 L13.924,49.501 C13.924,29.754 29.932,13.746 49.679,13.746 L49.679,26.748 C59.986,26.748 68.693,33.601 71.49,43 L56.947,43 C55.162,41.005 52.567,39.75 49.679,39.75 C44.293,39.75 39.927,44.115 39.927,49.501 Z" id="Fill-8" fill="#00BED9" style="mix-blend-mode: darken;" mask="url(#mask-2)"></path>
            </g>
        </g>
    </g>
</svg>
